<svg width="1200" height="1200" viewBox="0 0 1200 1200" fill="none" xmlns="http://www.w3.org/2000/svg">
<path d="M163.011 217.872C161.312 97.0212 358.329 0 599.505 0C840.682 0 1036 97.0212 1036 217.872C1036 301.277 945.984 372.766 811.808 410.213C945.984 447.66 1036 519.149 1036 602.553C1036 682.553 949.381 754.042 818.603 791.489C949.381 828.936 1036 900.426 1036 980.426C1036 1101.28 840.682 1200 599.505 1200C358.329 1200 163.011 1101.28 163.011 980.426C163.011 900.426 249.631 828.936 378.711 791.489C249.631 754.042 163.011 682.553 163.011 602.553C163.011 519.149 253.027 447.66 387.203 410.213C253.027 372.766 163.011 301.277 163.011 217.872Z" fill="#785C53"/>
</svg>
