<svg width="1200" height="1200" viewBox="0 0 1200 1200" fill="none" xmlns="http://www.w3.org/2000/svg">
<path d="M444.177 1119.86C407.598 1079.79 371.019 1043.2 299.602 1043.2C228.185 1043.2 193.348 1079.79 155.027 1119.86C132.369 1142.52 109.711 1166.4 78.7714 1182.14C38.628 1202.55 -1.55919e-05 1163.47 -1.55919e-05 1118.42V335.582C-1.55919e-05 290.526 36.5056 254 81.5374 254H1118.46C1163.55 254 1200.08 290.617 1200 335.733L1198.56 1118.57C1198.48 1163.57 1159.88 1202.56 1119.77 1182.21C1088.76 1166.47 1066.07 1142.55 1043.38 1119.86C1005.06 1079.79 970.223 1043.2 898.806 1043.2C827.389 1043.2 790.81 1079.79 754.231 1119.86C715.91 1158.19 677.588 1200 599.204 1200C520.82 1200 482.499 1158.19 444.177 1119.86Z" fill="#785C53"/>
</svg>
