<svg width="7836" height="525" viewBox="0 0 7836 525" fill="none" xmlns="http://www.w3.org/2000/svg">
<path d="M1810.44 522.48C1311.48 522.48 1462.87 528.15 980.918 522.48C498.964 528.15 498.964 522.48 0 522.48V0.049064C498.964 -5.62128 498.964 482.079 980.918 487.749C1462.87 482.079 1462.87 -5.62092 1956.16 0.0494243C2562.86 28.4011 2732.96 930.036 3413.37 249.595C3532.44 124.847 3662.85 0.0494243 3918 0.0494243V522.48C3419.04 522.48 3426.98 528.15 2945.03 522.48C2463.08 528.15 2303.74 522.48 1810.44 522.48Z" fill="#785C53"/>
<path d="M5728.44 522.48C5229.48 522.48 5380.87 528.15 4898.92 522.48C4416.96 528.15 4416.96 522.48 3918 522.48V0.049064C4416.96 -5.62128 4416.96 482.079 4898.92 487.749C5380.87 482.079 5380.87 -5.62092 5874.16 0.0494243C6480.86 28.4011 6650.96 930.036 7331.37 249.595C7450.44 124.847 7580.85 0.0494243 7836 0.0494243V522.48C7337.04 522.48 7344.98 528.15 6863.03 522.48C6381.08 528.15 6221.74 522.48 5728.44 522.48Z" fill="#785C53"/>
</svg>
