<svg width="1200" height="1200" viewBox="0 0 1200 1200" fill="none" xmlns="http://www.w3.org/2000/svg">
<path d="M83.3575 690.738C123.3 750.035 173.661 748.291 215.34 690.738C224.023 678.529 230.97 664.577 241.389 652.369C276.122 608.767 323.01 608.767 357.742 654.113C368.162 668.065 378.582 683.762 389.001 697.714C425.47 746.547 472.359 746.548 510.564 699.458C522.721 683.762 531.404 666.321 543.56 650.624C555.716 631.44 576.556 619.232 599.132 619.232C621.708 619.232 642.547 631.44 656.44 650.624C670.333 668.065 680.753 687.25 694.646 704.69C706.802 722.131 727.641 734.339 750.217 734.339C772.793 734.339 793.632 723.875 805.789 704.69C819.682 688.994 830.101 671.553 842.258 654.113C876.99 608.767 925.615 608.767 960.347 654.113C972.504 669.809 982.923 687.249 995.08 702.946C1028.08 744.803 1074.96 744.803 1109.7 702.946C1123.59 685.505 1134.01 666.321 1147.9 648.881C1160.06 631.44 1179.16 620.976 1200 622.72V1189.54C1179.16 1191.28 1160.06 1182.56 1147.9 1163.37C1134.01 1147.68 1123.59 1126.75 1109.7 1109.31C1074.96 1067.45 1028.08 1067.45 995.08 1111.05C982.923 1125.01 972.504 1142.45 960.347 1158.14C925.615 1203.49 876.99 1203.49 842.258 1158.14C830.101 1142.45 819.682 1123.26 805.789 1107.57C793.632 1090.13 772.793 1077.92 750.217 1077.92C727.641 1077.92 706.802 1090.12 694.646 1109.31C680.753 1126.75 670.333 1145.93 656.44 1163.37C642.547 1180.82 621.708 1193.02 599.132 1193.02C576.556 1193.02 555.716 1180.82 543.56 1161.63C531.404 1145.93 522.721 1130.24 510.564 1114.54C472.359 1065.71 425.47 1065.71 389.001 1114.54C378.582 1128.49 368.162 1144.19 357.742 1158.14C323.01 1203.49 276.122 1203.49 241.389 1159.89C230.97 1147.68 224.023 1133.73 215.34 1121.52C173.661 1063.96 123.3 1063.96 83.3575 1121.52C26.0492 1200 -1.78814e-05 1200 -1.78814e-05 1200V614C-1.78814e-05 614 26.0492 614 83.3575 690.738Z" fill="#785C53"/>
</svg>
